<svg width="28" height="22" viewBox="0 0 28 22" fill="none" xmlns="http://www.w3.org/2000/svg">
<g id="Component 3">
<path id="Vector" d="M27.1708 7.59304V14.8616L4.57251 20.2934V13.0249L27.1708 7.59304Z" stroke="#2DBB88" stroke-width="1.41591" stroke-linecap="round" stroke-linejoin="round"/>
<path id="Vector_2" d="M4.57256 13.0247V20.2912L1.32855 14.3981V7.13165L4.57256 13.0247Z" stroke="#2DBB88" stroke-width="1.41591" stroke-linecap="round" stroke-linejoin="round"/>
<path id="Vector_3" d="M23.9164 1.70618L1.33398 7.13391L4.57622 13.0208L27.1622 7.59102L23.9164 1.70618Z" stroke="#2DBB88" stroke-width="1.41591" stroke-linecap="round" stroke-linejoin="round"/>
<path id="Vector_4" d="M8.45554 9.88088C7.61313 9.88088 6.92999 9.38052 6.92999 8.7628C6.92999 8.14508 7.61313 7.64472 8.45554 7.64472C9.29796 7.64472 9.97932 8.14714 9.97932 8.7628C9.97932 9.37846 9.30681 9.88088 8.45554 9.88088Z" fill="#2DBB88"/>
<path id="Vector_5" d="M14.3465 8.48054C13.5041 8.48054 12.8209 7.98019 12.8209 7.36452C12.8209 6.74886 13.5041 6.24644 14.3465 6.24644C15.1889 6.24644 15.8703 6.7468 15.8703 7.36452C15.8703 7.98225 15.1889 8.48054 14.3465 8.48054Z" fill="#2DBB88"/>
<path id="Vector_6" d="M20.0369 7.08269C19.1963 7.08269 18.5131 6.58234 18.5131 5.96667C18.5131 5.35101 19.1963 4.84859 20.0369 4.84859C20.8776 4.84859 21.5625 5.34895 21.5625 5.96667C21.5625 6.5844 20.8793 7.08269 20.0369 7.08269Z" fill="#2DBB88"/>
</g>
</svg>
