<svg width="406" height="406" viewBox="0 0 406 406" fill="none" xmlns="http://www.w3.org/2000/svg">
<rect width="406" height="406" fill="white"/>
<rect x="27" y="316" width="124.2" height="54.4" rx="5.4" fill="#DDF7E7"/>
<path d="M66.8092 345.739C66.8092 345.462 66.7661 345.216 66.68 345.001C66.6 344.786 66.4554 344.589 66.2462 344.41C66.0371 344.232 65.7418 344.06 65.3603 343.894C64.985 343.721 64.5051 343.546 63.9207 343.368C63.2808 343.171 62.6902 342.952 62.1488 342.712C61.6135 342.466 61.146 342.183 60.7461 341.863C60.3461 341.537 60.0355 341.165 59.814 340.747C59.5925 340.322 59.4817 339.833 59.4817 339.279C59.4817 338.732 59.5956 338.233 59.8232 337.784C60.057 337.335 60.3861 336.948 60.8107 336.622C61.2413 336.289 61.7489 336.034 62.3334 335.856C62.9178 335.671 63.5638 335.579 64.2713 335.579C65.268 335.579 66.1263 335.763 66.8461 336.132C67.5721 336.502 68.1289 336.997 68.5165 337.618C68.9102 338.24 69.1071 338.926 69.1071 339.676H66.8092C66.8092 339.233 66.7138 338.843 66.5231 338.504C66.3385 338.16 66.0555 337.889 65.6741 337.692C65.2988 337.495 64.822 337.397 64.2437 337.397C63.6961 337.397 63.2408 337.48 62.8778 337.646C62.5149 337.812 62.2441 338.037 62.0657 338.32C61.8873 338.603 61.7981 338.923 61.7981 339.279C61.7981 339.532 61.8565 339.762 61.9734 339.971C62.0903 340.175 62.2688 340.365 62.5087 340.544C62.7486 340.716 63.0501 340.879 63.4131 341.033C63.7761 341.187 64.2037 341.334 64.6959 341.476C65.4403 341.697 66.0894 341.943 66.6431 342.214C67.1968 342.479 67.6582 342.78 68.0274 343.118C68.3965 343.457 68.6733 343.841 68.8579 344.272C69.0425 344.696 69.1348 345.179 69.1348 345.721C69.1348 346.287 69.021 346.798 68.7933 347.253C68.5657 347.702 68.2396 348.086 67.8151 348.406C67.3967 348.72 66.8922 348.963 66.3016 349.135C65.7171 349.302 65.065 349.385 64.3452 349.385C63.6992 349.385 63.0624 349.298 62.4349 349.126C61.8135 348.954 61.2475 348.692 60.7368 348.342C60.2262 347.985 59.8201 347.542 59.5187 347.013C59.2172 346.478 59.0665 345.853 59.0665 345.139H61.3828C61.3828 345.576 61.4566 345.948 61.6043 346.256C61.7581 346.564 61.9704 346.816 62.2411 347.013C62.5118 347.204 62.8255 347.345 63.1824 347.437C63.5454 347.53 63.933 347.576 64.3452 347.576C64.8866 347.576 65.3388 347.499 65.7018 347.345C66.0709 347.191 66.3478 346.976 66.5323 346.699C66.7169 346.422 66.8092 346.102 66.8092 345.739ZM77.7239 335.763V349.2H75.426V335.763H77.7239ZM81.9413 335.763V337.609H71.2455V335.763H81.9413ZM89.0723 337.554L85.0579 349.2H82.6308L87.688 335.763H89.2384L89.0723 337.554ZM92.4315 349.2L88.4079 337.554L88.2325 335.763H89.7921L94.8678 349.2H92.4315ZM92.2377 344.217V346.053H84.9287V344.217H92.2377ZM97.3846 335.763H102.137C103.159 335.763 104.029 335.917 104.749 336.225C105.469 336.532 106.019 336.988 106.401 337.591C106.788 338.187 106.982 338.926 106.982 339.805C106.982 340.476 106.859 341.067 106.613 341.577C106.367 342.088 106.019 342.519 105.57 342.869C105.121 343.214 104.586 343.481 103.965 343.672L103.263 344.014H98.9903L98.9719 342.177H102.174C102.728 342.177 103.189 342.079 103.558 341.882C103.928 341.685 104.204 341.417 104.389 341.079C104.58 340.734 104.675 340.347 104.675 339.916C104.675 339.449 104.583 339.042 104.398 338.698C104.22 338.347 103.943 338.08 103.568 337.895C103.192 337.704 102.716 337.609 102.137 337.609H99.7009V349.2H97.3846V335.763ZM105.053 349.2L101.897 343.165L104.324 343.155L107.527 349.08V349.2H105.053ZM115.202 335.763V349.2H112.904V335.763H115.202ZM119.42 335.763V337.609H108.724V335.763H119.42Z" fill="#00A575"/>
<rect x="254.2" y="316" width="123.9" height="54.4" rx="5.4" fill="#00A575"/>
<path d="M299.164 345.739C299.164 345.462 299.121 345.216 299.035 345.001C298.955 344.786 298.811 344.589 298.601 344.41C298.392 344.232 298.097 344.06 297.715 343.894C297.34 343.721 296.86 343.546 296.276 343.368C295.636 343.171 295.045 342.952 294.504 342.712C293.969 342.466 293.501 342.183 293.101 341.863C292.701 341.537 292.391 341.165 292.169 340.747C291.948 340.322 291.837 339.833 291.837 339.279C291.837 338.732 291.951 338.233 292.178 337.784C292.412 337.335 292.741 336.948 293.166 336.622C293.596 336.289 294.104 336.034 294.688 335.856C295.273 335.671 295.919 335.579 296.626 335.579C297.623 335.579 298.481 335.763 299.201 336.132C299.927 336.502 300.484 336.997 300.872 337.618C301.265 338.24 301.462 338.926 301.462 339.676H299.164C299.164 339.233 299.069 338.843 298.878 338.504C298.694 338.16 298.411 337.889 298.029 337.692C297.654 337.495 297.177 337.397 296.599 337.397C296.051 337.397 295.596 337.48 295.233 337.646C294.87 337.812 294.599 338.037 294.421 338.32C294.242 338.603 294.153 338.923 294.153 339.279C294.153 339.532 294.212 339.762 294.329 339.971C294.445 340.175 294.624 340.365 294.864 340.544C295.104 340.716 295.405 340.879 295.768 341.033C296.131 341.187 296.559 341.334 297.051 341.476C297.795 341.697 298.444 341.943 298.998 342.214C299.552 342.479 300.013 342.78 300.382 343.118C300.752 343.457 301.028 343.841 301.213 344.272C301.398 344.696 301.49 345.179 301.49 345.721C301.49 346.287 301.376 346.798 301.148 347.253C300.921 347.702 300.595 348.086 300.17 348.406C299.752 348.72 299.247 348.963 298.657 349.135C298.072 349.302 297.42 349.385 296.7 349.385C296.054 349.385 295.418 349.298 294.79 349.126C294.169 348.954 293.603 348.692 293.092 348.342C292.581 347.985 292.175 347.542 291.874 347.013C291.572 346.478 291.422 345.853 291.422 345.139H293.738C293.738 345.576 293.812 345.948 293.959 346.256C294.113 346.564 294.325 346.816 294.596 347.013C294.867 347.204 295.181 347.345 295.537 347.437C295.9 347.53 296.288 347.576 296.7 347.576C297.242 347.576 297.694 347.499 298.057 347.345C298.426 347.191 298.703 346.976 298.887 346.699C299.072 346.422 299.164 346.102 299.164 345.739ZM310.079 335.763V349.2H307.781V335.763H310.079ZM314.296 335.763V337.609H303.601V335.763H314.296ZM327.537 342.112V342.851C327.537 343.866 327.404 344.776 327.14 345.582C326.875 346.388 326.497 347.074 326.005 347.64C325.519 348.206 324.934 348.64 324.251 348.942C323.568 349.237 322.812 349.385 321.981 349.385C321.157 349.385 320.403 349.237 319.72 348.942C319.043 348.64 318.456 348.206 317.957 347.64C317.459 347.074 317.072 346.388 316.795 345.582C316.524 344.776 316.389 343.866 316.389 342.851V342.112C316.389 341.097 316.524 340.19 316.795 339.39C317.065 338.584 317.447 337.898 317.939 337.332C318.437 336.76 319.025 336.326 319.702 336.031C320.385 335.729 321.138 335.579 321.963 335.579C322.793 335.579 323.55 335.729 324.233 336.031C324.916 336.326 325.503 336.76 325.996 337.332C326.488 337.898 326.866 338.584 327.131 339.39C327.401 340.19 327.537 341.097 327.537 342.112ZM325.22 342.851V342.094C325.22 341.343 325.147 340.682 324.999 340.11C324.857 339.532 324.645 339.049 324.362 338.661C324.085 338.267 323.744 337.972 323.338 337.775C322.932 337.572 322.473 337.471 321.963 337.471C321.452 337.471 320.997 337.572 320.597 337.775C320.197 337.972 319.855 338.267 319.572 338.661C319.296 339.049 319.083 339.532 318.936 340.11C318.788 340.682 318.714 341.343 318.714 342.094V342.851C318.714 343.601 318.788 344.266 318.936 344.844C319.083 345.422 319.299 345.912 319.582 346.311C319.871 346.705 320.215 347.004 320.615 347.207C321.015 347.404 321.47 347.502 321.981 347.502C322.498 347.502 322.956 347.404 323.356 347.207C323.756 347.004 324.094 346.705 324.371 346.311C324.648 345.912 324.857 345.422 324.999 344.844C325.147 344.266 325.22 343.601 325.22 342.851ZM335.969 344.189H332.471V342.352H335.969C336.578 342.352 337.07 342.254 337.445 342.057C337.821 341.86 338.095 341.59 338.267 341.245C338.445 340.894 338.534 340.494 338.534 340.045C338.534 339.621 338.445 339.224 338.267 338.855C338.095 338.48 337.821 338.178 337.445 337.95C337.07 337.723 336.578 337.609 335.969 337.609H333.182V349.2H330.866V335.763H335.969C337.009 335.763 337.892 335.948 338.618 336.317C339.35 336.68 339.906 337.184 340.288 337.83C340.669 338.47 340.86 339.202 340.86 340.027C340.86 340.894 340.669 341.639 340.288 342.26C339.906 342.882 339.35 343.358 338.618 343.691C337.892 344.023 337.009 344.189 335.969 344.189Z" fill="white"/>
<path d="M166.204 176.678V182H119.131V177.195L143.778 149.24C146.844 145.761 149.29 142.712 151.116 140.094C152.941 137.442 154.25 135.03 155.043 132.86C155.869 130.655 156.283 128.52 156.283 126.453C156.283 123.421 155.68 120.752 154.474 118.444C153.303 116.136 151.546 114.327 149.204 113.018C146.861 111.709 143.968 111.055 140.523 111.055C137.078 111.055 134.081 111.795 131.532 113.277C128.983 114.758 127.019 116.825 125.641 119.477C124.298 122.095 123.626 125.075 123.626 128.416H117.477C117.477 124.283 118.39 120.493 120.216 117.049C122.076 113.604 124.728 110.865 128.173 108.833C131.618 106.766 135.735 105.732 140.523 105.732C145.07 105.732 148.98 106.542 152.252 108.161C155.525 109.746 158.04 112.036 159.796 115.033C161.588 118.03 162.483 121.647 162.483 125.884C162.483 128.158 162.07 130.449 161.243 132.757C160.451 135.065 159.349 137.373 157.936 139.681C156.558 141.954 154.974 144.211 153.182 146.45C151.426 148.689 149.583 150.894 147.654 153.064L126.675 176.678H166.204ZM226.056 137.924V150.584C226.056 156.095 225.539 160.901 224.506 165C223.473 169.065 221.957 172.441 219.959 175.128C217.995 177.78 215.584 179.761 212.725 181.07C209.9 182.379 206.662 183.033 203.011 183.033C200.117 183.033 197.464 182.62 195.053 181.793C192.642 180.967 190.489 179.709 188.594 178.021C186.734 176.299 185.149 174.146 183.84 171.562C182.531 168.979 181.532 165.947 180.843 162.468C180.154 158.954 179.81 154.993 179.81 150.584V137.924C179.81 132.378 180.327 127.59 181.36 123.559C182.428 119.529 183.944 116.187 185.907 113.535C187.905 110.882 190.334 108.919 193.193 107.644C196.052 106.335 199.29 105.681 202.907 105.681C205.801 105.681 208.453 106.111 210.865 106.973C213.31 107.799 215.463 109.039 217.324 110.693C219.218 112.346 220.803 114.465 222.077 117.049C223.386 119.598 224.368 122.612 225.023 126.091C225.712 129.57 226.056 133.515 226.056 137.924ZM219.907 151.307V137.149C219.907 133.739 219.666 130.638 219.184 127.848C218.736 125.058 218.064 122.612 217.169 120.511C216.273 118.409 215.136 116.652 213.758 115.24C212.415 113.828 210.83 112.777 209.004 112.088C207.213 111.365 205.181 111.003 202.907 111.003C200.117 111.003 197.654 111.571 195.518 112.708C193.417 113.81 191.66 115.464 190.248 117.669C188.835 119.839 187.767 122.56 187.044 125.833C186.355 129.105 186.011 132.877 186.011 137.149V151.307C186.011 154.683 186.234 157.766 186.682 160.556C187.13 163.312 187.819 165.758 188.749 167.894C189.679 170.029 190.816 171.838 192.159 173.319C193.537 174.766 195.122 175.868 196.913 176.626C198.739 177.35 200.771 177.711 203.011 177.711C205.87 177.711 208.35 177.143 210.451 176.006C212.553 174.835 214.309 173.13 215.722 170.891C217.134 168.617 218.185 165.844 218.874 162.571C219.563 159.264 219.907 155.51 219.907 151.307ZM288.647 106.766V110.331L256.507 182H250.1L282.033 112.088H239.197V106.766H288.647Z" fill="black"/>
<path d="M164.875 212.68H161.992L161.977 211.469H164.594C165.026 211.469 165.404 211.396 165.727 211.25C166.049 211.104 166.299 210.896 166.477 210.625C166.659 210.349 166.75 210.021 166.75 209.641C166.75 209.224 166.669 208.885 166.508 208.625C166.352 208.359 166.109 208.167 165.781 208.047C165.458 207.922 165.047 207.859 164.547 207.859H162.328V218H160.82V206.625H164.547C165.13 206.625 165.651 206.685 166.109 206.805C166.568 206.919 166.956 207.102 167.273 207.352C167.596 207.596 167.841 207.909 168.008 208.289C168.174 208.669 168.258 209.125 168.258 209.656C168.258 210.125 168.138 210.549 167.898 210.93C167.659 211.305 167.326 211.612 166.898 211.852C166.477 212.091 165.982 212.245 165.414 212.312L164.875 212.68ZM164.805 218H161.398L162.25 216.773H164.805C165.284 216.773 165.69 216.69 166.023 216.523C166.362 216.357 166.62 216.122 166.797 215.82C166.974 215.513 167.062 215.151 167.062 214.734C167.062 214.312 166.987 213.948 166.836 213.641C166.685 213.333 166.448 213.096 166.125 212.93C165.802 212.763 165.385 212.68 164.875 212.68H162.727L162.742 211.469H165.68L166 211.906C166.547 211.953 167.01 212.109 167.391 212.375C167.771 212.635 168.06 212.969 168.258 213.375C168.461 213.781 168.562 214.229 168.562 214.719C168.562 215.427 168.406 216.026 168.094 216.516C167.786 217 167.352 217.37 166.789 217.625C166.227 217.875 165.565 218 164.805 218ZM172.456 210.875V218H171.01V209.547H172.417L172.456 210.875ZM175.096 209.5L175.088 210.844C174.969 210.818 174.854 210.802 174.745 210.797C174.641 210.786 174.521 210.781 174.385 210.781C174.052 210.781 173.758 210.833 173.502 210.938C173.247 211.042 173.031 211.188 172.854 211.375C172.677 211.562 172.536 211.786 172.432 212.047C172.333 212.302 172.268 212.583 172.237 212.891L171.831 213.125C171.831 212.615 171.88 212.135 171.979 211.688C172.083 211.24 172.242 210.844 172.456 210.5C172.669 210.151 172.94 209.88 173.268 209.688C173.601 209.49 173.997 209.391 174.456 209.391C174.56 209.391 174.68 209.404 174.815 209.43C174.95 209.451 175.044 209.474 175.096 209.5ZM178.442 209.547V218H176.989V209.547H178.442ZM176.88 207.305C176.88 207.07 176.95 206.872 177.091 206.711C177.237 206.549 177.45 206.469 177.732 206.469C178.008 206.469 178.219 206.549 178.364 206.711C178.515 206.872 178.591 207.07 178.591 207.305C178.591 207.529 178.515 207.721 178.364 207.883C178.219 208.039 178.008 208.117 177.732 208.117C177.45 208.117 177.237 208.039 177.091 207.883C176.95 207.721 176.88 207.529 176.88 207.305ZM184.586 216.969C184.929 216.969 185.247 216.898 185.539 216.758C185.83 216.617 186.07 216.424 186.257 216.18C186.445 215.93 186.552 215.646 186.578 215.328H187.953C187.927 215.828 187.757 216.294 187.445 216.727C187.138 217.154 186.734 217.5 186.234 217.766C185.734 218.026 185.185 218.156 184.586 218.156C183.95 218.156 183.396 218.044 182.922 217.82C182.453 217.596 182.062 217.289 181.75 216.898C181.442 216.508 181.211 216.06 181.054 215.555C180.903 215.044 180.828 214.505 180.828 213.938V213.609C180.828 213.042 180.903 212.505 181.054 212C181.211 211.49 181.442 211.039 181.75 210.648C182.062 210.258 182.453 209.951 182.922 209.727C183.396 209.503 183.95 209.391 184.586 209.391C185.247 209.391 185.825 209.526 186.32 209.797C186.815 210.062 187.203 210.427 187.484 210.891C187.771 211.349 187.927 211.87 187.953 212.453H186.578C186.552 212.104 186.453 211.789 186.281 211.508C186.114 211.227 185.885 211.003 185.593 210.836C185.307 210.664 184.971 210.578 184.586 210.578C184.143 210.578 183.771 210.667 183.468 210.844C183.172 211.016 182.935 211.25 182.757 211.547C182.586 211.839 182.461 212.164 182.382 212.523C182.31 212.878 182.273 213.24 182.273 213.609V213.938C182.273 214.307 182.31 214.672 182.382 215.031C182.455 215.391 182.578 215.716 182.75 216.008C182.927 216.299 183.164 216.534 183.461 216.711C183.763 216.883 184.138 216.969 184.586 216.969ZM191.471 206V218H190.018V206H191.471ZM196.635 209.547L192.948 213.492L190.885 215.633L190.768 214.094L192.244 212.328L194.869 209.547H196.635ZM195.315 218L192.299 213.969L193.049 212.68L197.018 218H195.315ZM210.062 214.383H211.562C211.484 215.102 211.278 215.745 210.945 216.312C210.611 216.88 210.14 217.331 209.531 217.664C208.921 217.992 208.161 218.156 207.249 218.156C206.583 218.156 205.976 218.031 205.429 217.781C204.887 217.531 204.421 217.177 204.031 216.719C203.64 216.255 203.338 215.701 203.124 215.055C202.916 214.404 202.812 213.68 202.812 212.883V211.75C202.812 210.953 202.916 210.232 203.124 209.586C203.338 208.935 203.643 208.378 204.038 207.914C204.439 207.451 204.921 207.094 205.484 206.844C206.046 206.594 206.679 206.469 207.382 206.469C208.242 206.469 208.968 206.63 209.562 206.953C210.156 207.276 210.617 207.724 210.945 208.297C211.278 208.865 211.484 209.523 211.562 210.273H210.062C209.989 209.742 209.854 209.286 209.656 208.906C209.458 208.521 209.176 208.224 208.812 208.016C208.447 207.807 207.971 207.703 207.382 207.703C206.877 207.703 206.432 207.799 206.046 207.992C205.666 208.185 205.346 208.458 205.085 208.812C204.83 209.167 204.637 209.591 204.507 210.086C204.377 210.581 204.312 211.13 204.312 211.734V212.883C204.312 213.44 204.369 213.964 204.484 214.453C204.604 214.943 204.783 215.372 205.023 215.742C205.262 216.112 205.567 216.404 205.937 216.617C206.307 216.826 206.744 216.93 207.249 216.93C207.89 216.93 208.4 216.828 208.781 216.625C209.161 216.422 209.447 216.13 209.64 215.75C209.838 215.37 209.979 214.914 210.062 214.383ZM213.455 213.867V213.688C213.455 213.078 213.544 212.513 213.721 211.992C213.898 211.466 214.153 211.01 214.486 210.625C214.82 210.234 215.223 209.932 215.697 209.719C216.171 209.5 216.702 209.391 217.291 209.391C217.885 209.391 218.419 209.5 218.893 209.719C219.372 209.932 219.778 210.234 220.111 210.625C220.45 211.01 220.708 211.466 220.885 211.992C221.062 212.513 221.15 213.078 221.15 213.688V213.867C221.15 214.477 221.062 215.042 220.885 215.562C220.708 216.083 220.45 216.539 220.111 216.93C219.778 217.315 219.374 217.617 218.9 217.836C218.432 218.049 217.9 218.156 217.307 218.156C216.713 218.156 216.179 218.049 215.705 217.836C215.231 217.617 214.825 217.315 214.486 216.93C214.153 216.539 213.898 216.083 213.721 215.562C213.544 215.042 213.455 214.477 213.455 213.867ZM214.9 213.688V213.867C214.9 214.289 214.95 214.688 215.049 215.062C215.148 215.432 215.296 215.76 215.494 216.047C215.697 216.333 215.95 216.56 216.252 216.727C216.554 216.888 216.906 216.969 217.307 216.969C217.702 216.969 218.049 216.888 218.346 216.727C218.648 216.56 218.898 216.333 219.096 216.047C219.294 215.76 219.442 215.432 219.541 215.062C219.645 214.688 219.697 214.289 219.697 213.867V213.688C219.697 213.271 219.645 212.878 219.541 212.508C219.442 212.133 219.291 211.802 219.088 211.516C218.89 211.224 218.64 210.995 218.338 210.828C218.041 210.661 217.692 210.578 217.291 210.578C216.895 210.578 216.546 210.661 216.244 210.828C215.947 210.995 215.697 211.224 215.494 211.516C215.296 211.802 215.148 212.133 215.049 212.508C214.95 212.878 214.9 213.271 214.9 213.688ZM228.575 216.047V209.547H230.028V218H228.645L228.575 216.047ZM228.848 214.266L229.45 214.25C229.45 214.812 229.39 215.333 229.27 215.812C229.155 216.286 228.968 216.698 228.708 217.047C228.447 217.396 228.106 217.669 227.684 217.867C227.262 218.06 226.749 218.156 226.145 218.156C225.734 218.156 225.356 218.096 225.012 217.977C224.674 217.857 224.382 217.672 224.137 217.422C223.892 217.172 223.702 216.846 223.567 216.445C223.437 216.044 223.372 215.562 223.372 215V209.547H224.817V215.016C224.817 215.396 224.859 215.711 224.942 215.961C225.03 216.206 225.148 216.401 225.293 216.547C225.444 216.688 225.611 216.786 225.793 216.844C225.981 216.901 226.174 216.93 226.372 216.93C226.986 216.93 227.473 216.812 227.833 216.578C228.192 216.339 228.45 216.018 228.606 215.617C228.767 215.211 228.848 214.76 228.848 214.266ZM234.116 211.352V218H232.671V209.547H234.038L234.116 211.352ZM233.772 213.453L233.171 213.43C233.176 212.852 233.262 212.318 233.429 211.828C233.595 211.333 233.83 210.904 234.132 210.539C234.434 210.174 234.793 209.893 235.21 209.695C235.632 209.492 236.098 209.391 236.608 209.391C237.025 209.391 237.4 209.448 237.733 209.562C238.067 209.672 238.351 209.849 238.585 210.094C238.825 210.339 239.007 210.656 239.132 211.047C239.257 211.432 239.319 211.904 239.319 212.461V218H237.866V212.445C237.866 212.003 237.801 211.648 237.671 211.383C237.541 211.112 237.351 210.917 237.101 210.797C236.851 210.672 236.543 210.609 236.179 210.609C235.819 210.609 235.491 210.685 235.194 210.836C234.903 210.987 234.65 211.195 234.437 211.461C234.228 211.727 234.064 212.031 233.944 212.375C233.83 212.714 233.772 213.073 233.772 213.453ZM245.494 209.547V210.656H240.923V209.547H245.494ZM242.47 207.492H243.916V215.906C243.916 216.193 243.96 216.409 244.048 216.555C244.137 216.701 244.252 216.797 244.392 216.844C244.533 216.891 244.684 216.914 244.845 216.914C244.965 216.914 245.09 216.904 245.22 216.883C245.356 216.857 245.457 216.836 245.525 216.82L245.533 218C245.418 218.036 245.267 218.07 245.08 218.102C244.897 218.138 244.676 218.156 244.416 218.156C244.061 218.156 243.736 218.086 243.439 217.945C243.142 217.805 242.905 217.57 242.728 217.242C242.556 216.909 242.47 216.461 242.47 215.898V207.492Z" fill="#00A575"/>
<rect x="327" y="19" width="52.9608" height="56.9777" rx="3" fill="#DDF7E7"/>
<g clip-path="url(#clip0_1_7)">
<path d="M364.251 30C366.389 30.7897 366.933 31.5763 366.933 33.8755C366.933 42.4505 366.888 51.0255 366.961 59.6005C366.981 62.0738 365.47 63.5117 363.138 63.4029C362.286 63.3641 361.431 63.3967 360.614 63.3967C360.149 61.2763 359.693 59.1978 359.225 57.0603C360.657 57.0603 362.17 57.0603 363.73 57.0603C363.73 50.1347 363.73 43.2884 363.73 36.4001C358.462 36.4001 353.218 36.4001 347.894 36.4001C347.894 39.5575 347.894 42.6759 347.894 45.8737C346.89 45.5783 345.973 45.3327 345.077 45.0233C344.909 44.9658 344.727 44.6518 344.727 44.4559C344.709 40.7001 344.695 36.9427 344.726 33.1869C344.741 31.4799 345.778 30.5208 347.306 30C352.954 30 358.603 30 364.251 30Z" fill="#8ACCB4"/>
<path d="M354.302 64.9777C354.173 62.3583 353.626 59.8523 352.21 57.6028C349.475 53.2609 345.547 50.94 340.414 50.6773C340.311 50.6726 340.208 50.6633 340.106 50.6493C340.084 50.6462 340.067 50.6166 340.005 50.5622C340.005 49.6062 340.005 48.6112 340.005 47.6194C347.417 47.1344 357.304 53.4832 357.411 64.9777C356.374 64.9777 355.339 64.9777 354.302 64.9777Z" fill="#8ACCB4"/>
<path d="M347.928 64.9777C347.697 61.3618 346.033 58.7501 342.559 57.4769C341.772 57.1893 340.911 57.1054 340.016 56.9126C340.016 56.0032 340.016 55.0067 340.016 54.0118C345.003 52.7992 351.042 58.8076 351.037 64.9777C350.001 64.9777 348.965 64.9777 347.928 64.9777Z" fill="#8ACCB4"/>
<path d="M340 64.9777C340 63.4293 340 61.8794 340 60.3327C342.419 59.9984 344.685 62.2665 344.664 64.9777C343.109 64.9777 341.555 64.9777 340 64.9777Z" fill="#8ACCB4"/>
</g>
<rect x="25" y="243" width="355" height="48" rx="4" fill="#EFFBF8"/>
<g clip-path="url(#clip1_1_7)">
<path d="M54.4367 270.502L54.3892 276.912L76.2803 271.503C76.3992 271.474 76.5059 271.398 76.5825 271.288C76.6591 271.177 76.7008 271.039 76.7007 270.896V264.951L54.4367 270.502Z" fill="#2DBB88"/>
<path d="M52.986 270.141L49.8007 265.21V270.164C49.9643 270.552 49.9942 270.667 50.0487 270.767L52.9421 276.394L52.986 270.141Z" fill="#2DBB88"/>
<path d="M53.8897 268.948L76.4634 263.438C76.4634 263.438 76.6551 263.323 76.5724 263.211L73.3835 257.376C73.326 257.27 73.2426 257.188 73.1443 257.139C73.046 257.091 72.9375 257.078 72.833 257.103L50.4247 262.536H50.3878C50.3726 262.534 50.3572 262.534 50.342 262.536C50.2324 262.574 50.1362 262.652 50.0677 262.759C49.9992 262.866 49.9621 262.997 49.9621 263.131L50.342 263.711L53.8897 268.948ZM69.0848 260.577C70.1402 260.577 70.9827 261.197 70.9827 261.979C70.9827 262.761 70.1331 263.38 69.0848 263.38C68.0365 263.38 67.187 262.761 67.187 261.979C67.187 261.197 68.0365 260.577 69.0848 260.577ZM63.3297 261.979C64.3851 261.979 65.2276 262.598 65.2276 263.38C65.2276 264.163 64.3763 264.784 63.3297 264.784C62.2832 264.784 61.4319 264.165 61.4319 263.38C61.4319 262.596 62.2885 261.979 63.3297 261.979ZM57.5729 263.38C58.6282 263.38 59.4707 264.01 59.4707 264.784C59.4707 265.558 58.6212 266.186 57.5729 266.186C56.5246 266.186 55.675 265.567 55.675 264.784C55.675 264.002 56.5246 263.38 57.5729 263.38Z" fill="#2DBB88"/>
</g>
<path d="M121.203 265.345H118.681L118.667 264.285H120.957C121.335 264.285 121.666 264.221 121.948 264.094C122.231 263.966 122.45 263.784 122.604 263.547C122.764 263.305 122.844 263.018 122.844 262.686C122.844 262.321 122.773 262.025 122.632 261.797C122.495 261.564 122.283 261.396 121.996 261.291C121.714 261.182 121.354 261.127 120.916 261.127H118.975V270H117.655V260.047H120.916C121.426 260.047 121.882 260.099 122.283 260.204C122.684 260.304 123.024 260.464 123.302 260.683C123.584 260.897 123.799 261.17 123.944 261.503C124.09 261.836 124.163 262.234 124.163 262.699C124.163 263.109 124.058 263.481 123.849 263.813C123.639 264.142 123.347 264.41 122.974 264.62C122.604 264.83 122.172 264.964 121.675 265.023L121.203 265.345ZM121.142 270H118.161L118.906 268.927H121.142C121.561 268.927 121.916 268.854 122.208 268.708C122.504 268.562 122.73 268.357 122.885 268.093C123.04 267.824 123.117 267.507 123.117 267.143C123.117 266.773 123.051 266.454 122.919 266.186C122.787 265.917 122.579 265.709 122.297 265.563C122.014 265.418 121.65 265.345 121.203 265.345H119.323L119.337 264.285H121.907L122.188 264.668C122.666 264.709 123.072 264.846 123.404 265.078C123.737 265.306 123.99 265.598 124.163 265.953C124.341 266.309 124.43 266.701 124.43 267.129C124.43 267.749 124.293 268.273 124.02 268.701C123.751 269.125 123.37 269.449 122.878 269.672C122.386 269.891 121.807 270 121.142 270ZM127.701 263.766V270H126.437V262.604H127.667L127.701 263.766ZM130.012 262.562L130.005 263.738C129.9 263.715 129.8 263.702 129.704 263.697C129.613 263.688 129.508 263.684 129.39 263.684C129.098 263.684 128.84 263.729 128.617 263.82C128.394 263.911 128.205 264.039 128.05 264.203C127.895 264.367 127.772 264.563 127.681 264.791C127.594 265.014 127.537 265.26 127.51 265.529L127.154 265.734C127.154 265.288 127.198 264.868 127.284 264.477C127.375 264.085 127.514 263.738 127.701 263.438C127.888 263.132 128.125 262.895 128.412 262.727C128.704 262.553 129.05 262.467 129.451 262.467C129.542 262.467 129.647 262.478 129.766 262.501C129.884 262.519 129.966 262.54 130.012 262.562ZM132.805 262.604V270H131.533V262.604H132.805ZM131.438 260.642C131.438 260.437 131.499 260.263 131.622 260.122C131.75 259.981 131.937 259.91 132.183 259.91C132.424 259.91 132.609 259.981 132.736 260.122C132.868 260.263 132.935 260.437 132.935 260.642C132.935 260.838 132.868 261.006 132.736 261.147C132.609 261.284 132.424 261.353 132.183 261.353C131.937 261.353 131.75 261.284 131.622 261.147C131.499 261.006 131.438 260.838 131.438 260.642ZM138.045 269.098C138.346 269.098 138.624 269.036 138.879 268.913C139.134 268.79 139.344 268.621 139.508 268.407C139.672 268.188 139.765 267.94 139.788 267.662H140.991C140.968 268.1 140.82 268.507 140.547 268.886C140.278 269.259 139.925 269.562 139.487 269.795C139.05 270.023 138.569 270.137 138.045 270.137C137.489 270.137 137.004 270.039 136.589 269.843C136.179 269.647 135.837 269.378 135.563 269.036C135.295 268.694 135.092 268.302 134.955 267.86C134.823 267.414 134.757 266.942 134.757 266.445V266.158C134.757 265.661 134.823 265.192 134.955 264.75C135.092 264.303 135.295 263.909 135.563 263.567C135.837 263.226 136.179 262.957 136.589 262.761C137.004 262.565 137.489 262.467 138.045 262.467C138.624 262.467 139.13 262.585 139.562 262.822C139.995 263.055 140.335 263.374 140.581 263.779C140.832 264.18 140.968 264.636 140.991 265.146H139.788C139.765 264.841 139.679 264.565 139.528 264.319C139.382 264.073 139.182 263.877 138.927 263.731C138.676 263.581 138.382 263.506 138.045 263.506C137.658 263.506 137.332 263.583 137.067 263.738C136.808 263.889 136.6 264.094 136.445 264.354C136.295 264.609 136.186 264.894 136.117 265.208C136.053 265.518 136.021 265.835 136.021 266.158V266.445C136.021 266.769 136.053 267.088 136.117 267.402C136.181 267.717 136.288 268.002 136.438 268.257C136.593 268.512 136.801 268.717 137.061 268.872C137.325 269.022 137.653 269.098 138.045 269.098ZM143.935 259.5V270H142.663V259.5H143.935ZM148.453 262.604L145.227 266.056L143.422 267.929L143.319 266.582L144.611 265.037L146.908 262.604H148.453ZM147.298 270L144.659 266.473L145.315 265.345L148.788 270H147.298ZM154.315 268.038C154.315 267.856 154.274 267.687 154.192 267.532C154.115 267.373 153.953 267.229 153.707 267.102C153.465 266.969 153.101 266.855 152.613 266.76C152.203 266.673 151.832 266.571 151.499 266.452C151.171 266.334 150.891 266.19 150.658 266.021C150.43 265.853 150.255 265.655 150.132 265.427C150.009 265.199 149.947 264.932 149.947 264.627C149.947 264.335 150.011 264.06 150.139 263.8C150.271 263.54 150.455 263.31 150.692 263.109C150.934 262.909 151.223 262.752 151.561 262.638C151.898 262.524 152.274 262.467 152.688 262.467C153.281 262.467 153.787 262.572 154.206 262.781C154.625 262.991 154.947 263.271 155.17 263.622C155.393 263.968 155.505 264.354 155.505 264.777H154.24C154.24 264.572 154.179 264.374 154.056 264.183C153.937 263.987 153.762 263.825 153.529 263.697C153.301 263.57 153.021 263.506 152.688 263.506C152.338 263.506 152.053 263.561 151.834 263.67C151.62 263.775 151.463 263.909 151.362 264.073C151.267 264.237 151.219 264.41 151.219 264.593C151.219 264.729 151.242 264.853 151.287 264.962C151.337 265.067 151.424 265.165 151.547 265.256C151.67 265.342 151.843 265.424 152.066 265.502C152.29 265.579 152.575 265.657 152.921 265.734C153.527 265.871 154.026 266.035 154.418 266.227C154.81 266.418 155.102 266.653 155.293 266.931C155.484 267.209 155.58 267.546 155.58 267.942C155.58 268.266 155.512 268.562 155.375 268.831C155.243 269.1 155.049 269.332 154.794 269.528C154.543 269.72 154.243 269.87 153.892 269.979C153.545 270.084 153.156 270.137 152.723 270.137C152.071 270.137 151.52 270.021 151.068 269.788C150.617 269.556 150.275 269.255 150.043 268.886C149.811 268.517 149.694 268.127 149.694 267.717H150.966C150.984 268.063 151.084 268.339 151.267 268.544C151.449 268.744 151.672 268.888 151.937 268.975C152.201 269.057 152.463 269.098 152.723 269.098C153.069 269.098 153.358 269.052 153.591 268.961C153.828 268.87 154.008 268.744 154.131 268.585C154.254 268.425 154.315 268.243 154.315 268.038ZM165.575 268.735V264.928C165.575 264.636 165.516 264.383 165.397 264.169C165.284 263.95 165.11 263.782 164.878 263.663C164.646 263.545 164.358 263.485 164.017 263.485C163.698 263.485 163.417 263.54 163.176 263.649C162.939 263.759 162.752 263.902 162.615 264.08C162.483 264.258 162.417 264.449 162.417 264.654H161.152C161.152 264.39 161.221 264.128 161.357 263.868C161.494 263.608 161.69 263.374 161.945 263.164C162.205 262.95 162.515 262.781 162.875 262.658C163.24 262.531 163.645 262.467 164.092 262.467C164.63 262.467 165.104 262.558 165.514 262.74C165.928 262.923 166.252 263.198 166.484 263.567C166.721 263.932 166.84 264.39 166.84 264.941V268.387C166.84 268.633 166.86 268.895 166.901 269.173C166.947 269.451 167.013 269.69 167.1 269.891V270H165.78C165.716 269.854 165.666 269.66 165.63 269.419C165.593 269.173 165.575 268.945 165.575 268.735ZM165.794 265.516L165.808 266.404H164.529C164.169 266.404 163.848 266.434 163.565 266.493C163.283 266.548 163.046 266.632 162.854 266.746C162.663 266.86 162.517 267.004 162.417 267.177C162.317 267.345 162.267 267.544 162.267 267.771C162.267 268.004 162.319 268.216 162.424 268.407C162.529 268.599 162.686 268.751 162.896 268.865C163.11 268.975 163.372 269.029 163.682 269.029C164.069 269.029 164.411 268.947 164.707 268.783C165.003 268.619 165.238 268.419 165.411 268.182C165.589 267.945 165.685 267.715 165.698 267.491L166.238 268.1C166.206 268.291 166.12 268.503 165.979 268.735C165.837 268.968 165.648 269.191 165.411 269.405C165.179 269.615 164.901 269.79 164.577 269.932C164.258 270.068 163.898 270.137 163.497 270.137C162.996 270.137 162.556 270.039 162.178 269.843C161.804 269.647 161.512 269.385 161.303 269.057C161.098 268.724 160.995 268.353 160.995 267.942C160.995 267.546 161.073 267.197 161.228 266.896C161.382 266.591 161.606 266.338 161.897 266.138C162.189 265.933 162.54 265.778 162.95 265.673C163.36 265.568 163.818 265.516 164.324 265.516H165.794ZM170.344 263.766V270H169.079V262.604H170.31L170.344 263.766ZM172.654 262.562L172.647 263.738C172.543 263.715 172.442 263.702 172.347 263.697C172.256 263.688 172.151 263.684 172.032 263.684C171.741 263.684 171.483 263.729 171.26 263.82C171.036 263.911 170.847 264.039 170.692 264.203C170.537 264.367 170.414 264.563 170.323 264.791C170.237 265.014 170.18 265.26 170.152 265.529L169.797 265.734C169.797 265.288 169.84 264.868 169.927 264.477C170.018 264.085 170.157 263.738 170.344 263.438C170.531 263.132 170.768 262.895 171.055 262.727C171.346 262.553 171.693 262.467 172.094 262.467C172.185 262.467 172.29 262.478 172.408 262.501C172.527 262.519 172.609 262.54 172.654 262.562ZM177.006 270.137C176.491 270.137 176.024 270.05 175.604 269.877C175.19 269.699 174.832 269.451 174.531 269.132C174.235 268.813 174.007 268.435 173.848 267.997C173.688 267.56 173.608 267.081 173.608 266.562V266.274C173.608 265.673 173.697 265.137 173.875 264.668C174.053 264.194 174.294 263.793 174.6 263.465C174.905 263.137 175.251 262.888 175.639 262.72C176.026 262.551 176.427 262.467 176.842 262.467C177.37 262.467 177.826 262.558 178.209 262.74C178.596 262.923 178.913 263.178 179.159 263.506C179.405 263.829 179.588 264.212 179.706 264.654C179.825 265.092 179.884 265.57 179.884 266.09V266.657H174.36V265.625H178.619V265.529C178.601 265.201 178.533 264.882 178.414 264.572C178.3 264.262 178.118 264.007 177.867 263.807C177.617 263.606 177.275 263.506 176.842 263.506C176.555 263.506 176.29 263.567 176.049 263.69C175.807 263.809 175.6 263.987 175.427 264.224C175.254 264.461 175.119 264.75 175.023 265.092C174.928 265.434 174.88 265.828 174.88 266.274V266.562C174.88 266.912 174.928 267.243 175.023 267.553C175.124 267.858 175.267 268.127 175.454 268.359C175.646 268.592 175.876 268.774 176.145 268.906C176.418 269.038 176.728 269.104 177.074 269.104C177.521 269.104 177.899 269.013 178.209 268.831C178.519 268.649 178.79 268.405 179.022 268.1L179.788 268.708C179.629 268.95 179.426 269.18 179.18 269.398C178.934 269.617 178.631 269.795 178.271 269.932C177.915 270.068 177.493 270.137 177.006 270.137ZM188.293 269.098C188.594 269.098 188.872 269.036 189.127 268.913C189.382 268.79 189.592 268.621 189.756 268.407C189.92 268.188 190.013 267.94 190.036 267.662H191.239C191.216 268.1 191.068 268.507 190.795 268.886C190.526 269.259 190.173 269.562 189.735 269.795C189.298 270.023 188.817 270.137 188.293 270.137C187.737 270.137 187.252 270.039 186.837 269.843C186.427 269.647 186.085 269.378 185.812 269.036C185.543 268.694 185.34 268.302 185.203 267.86C185.071 267.414 185.005 266.942 185.005 266.445V266.158C185.005 265.661 185.071 265.192 185.203 264.75C185.34 264.303 185.543 263.909 185.812 263.567C186.085 263.226 186.427 262.957 186.837 262.761C187.252 262.565 187.737 262.467 188.293 262.467C188.872 262.467 189.378 262.585 189.811 262.822C190.243 263.055 190.583 263.374 190.829 263.779C191.08 264.18 191.216 264.636 191.239 265.146H190.036C190.013 264.841 189.927 264.565 189.776 264.319C189.631 264.073 189.43 263.877 189.175 263.731C188.924 263.581 188.63 263.506 188.293 263.506C187.906 263.506 187.58 263.583 187.315 263.738C187.056 263.889 186.848 264.094 186.693 264.354C186.543 264.609 186.434 264.894 186.365 265.208C186.301 265.518 186.27 265.835 186.27 266.158V266.445C186.27 266.769 186.301 267.088 186.365 267.402C186.429 267.717 186.536 268.002 186.687 268.257C186.841 268.512 187.049 268.717 187.309 268.872C187.573 269.022 187.901 269.098 188.293 269.098ZM197.437 268.291V262.604H198.708V270H197.498L197.437 268.291ZM197.676 266.732L198.202 266.719C198.202 267.211 198.15 267.667 198.045 268.086C197.945 268.501 197.781 268.861 197.553 269.166C197.325 269.471 197.026 269.711 196.657 269.884C196.288 270.052 195.839 270.137 195.311 270.137C194.951 270.137 194.62 270.084 194.319 269.979C194.023 269.875 193.768 269.713 193.554 269.494C193.34 269.275 193.173 268.991 193.055 268.64C192.941 268.289 192.884 267.867 192.884 267.375V262.604H194.148V267.389C194.148 267.721 194.185 267.997 194.258 268.216C194.335 268.43 194.438 268.601 194.565 268.729C194.698 268.852 194.843 268.938 195.003 268.988C195.167 269.038 195.336 269.063 195.509 269.063C196.047 269.063 196.473 268.961 196.787 268.756C197.102 268.546 197.327 268.266 197.464 267.915C197.605 267.56 197.676 267.165 197.676 266.732ZM202.15 263.766V270H200.886V262.604H202.116L202.15 263.766ZM204.461 262.562L204.454 263.738C204.349 263.715 204.249 263.702 204.153 263.697C204.062 263.688 203.957 263.684 203.839 263.684C203.547 263.684 203.29 263.729 203.066 263.82C202.843 263.911 202.654 264.039 202.499 264.203C202.344 264.367 202.221 264.563 202.13 264.791C202.043 265.014 201.986 265.26 201.959 265.529L201.604 265.734C201.604 265.288 201.647 264.868 201.733 264.477C201.825 264.085 201.964 263.738 202.15 263.438C202.337 263.132 202.574 262.895 202.861 262.727C203.153 262.553 203.499 262.467 203.9 262.467C203.992 262.467 204.096 262.478 204.215 262.501C204.333 262.519 204.415 262.54 204.461 262.562ZM207.145 263.766V270H205.88V262.604H207.11L207.145 263.766ZM209.455 262.562L209.448 263.738C209.343 263.715 209.243 263.702 209.147 263.697C209.056 263.688 208.951 263.684 208.833 263.684C208.541 263.684 208.284 263.729 208.061 263.82C207.837 263.911 207.648 264.039 207.493 264.203C207.338 264.367 207.215 264.563 207.124 264.791C207.037 265.014 206.98 265.26 206.953 265.529L206.598 265.734C206.598 265.288 206.641 264.868 206.728 264.477C206.819 264.085 206.958 263.738 207.145 263.438C207.331 263.132 207.568 262.895 207.855 262.727C208.147 262.553 208.493 262.467 208.895 262.467C208.986 262.467 209.09 262.478 209.209 262.501C209.327 262.519 209.41 262.54 209.455 262.562ZM213.807 270.137C213.292 270.137 212.825 270.05 212.405 269.877C211.991 269.699 211.633 269.451 211.332 269.132C211.036 268.813 210.808 268.435 210.648 267.997C210.489 267.56 210.409 267.081 210.409 266.562V266.274C210.409 265.673 210.498 265.137 210.676 264.668C210.854 264.194 211.095 263.793 211.4 263.465C211.706 263.137 212.052 262.888 212.439 262.72C212.827 262.551 213.228 262.467 213.643 262.467C214.171 262.467 214.627 262.558 215.01 262.74C215.397 262.923 215.714 263.178 215.96 263.506C216.206 263.829 216.388 264.212 216.507 264.654C216.625 265.092 216.685 265.57 216.685 266.09V266.657H211.161V265.625H215.42V265.529C215.402 265.201 215.333 264.882 215.215 264.572C215.101 264.262 214.919 264.007 214.668 263.807C214.417 263.606 214.076 263.506 213.643 263.506C213.355 263.506 213.091 263.567 212.85 263.69C212.608 263.809 212.401 263.987 212.228 264.224C212.054 264.461 211.92 264.75 211.824 265.092C211.729 265.434 211.681 265.828 211.681 266.274V266.562C211.681 266.912 211.729 267.243 211.824 267.553C211.924 267.858 212.068 268.127 212.255 268.359C212.446 268.592 212.676 268.774 212.945 268.906C213.219 269.038 213.529 269.104 213.875 269.104C214.322 269.104 214.7 269.013 215.01 268.831C215.32 268.649 215.591 268.405 215.823 268.1L216.589 268.708C216.429 268.95 216.227 269.18 215.98 269.398C215.734 269.617 215.431 269.795 215.071 269.932C214.716 270.068 214.294 270.137 213.807 270.137ZM219.676 264.183V270H218.411V262.604H219.607L219.676 264.183ZM219.375 266.021L218.849 266.001C218.853 265.495 218.928 265.028 219.074 264.6C219.22 264.167 219.425 263.791 219.689 263.472C219.954 263.153 220.268 262.907 220.633 262.733C221.002 262.556 221.41 262.467 221.856 262.467C222.221 262.467 222.549 262.517 222.841 262.617C223.132 262.713 223.381 262.868 223.586 263.082C223.796 263.296 223.955 263.574 224.064 263.916C224.174 264.253 224.229 264.666 224.229 265.153V270H222.957V265.14C222.957 264.752 222.9 264.442 222.786 264.21C222.672 263.973 222.506 263.802 222.287 263.697C222.068 263.588 221.799 263.533 221.48 263.533C221.166 263.533 220.879 263.599 220.619 263.731C220.364 263.864 220.143 264.046 219.956 264.278C219.774 264.511 219.63 264.777 219.525 265.078C219.425 265.374 219.375 265.689 219.375 266.021ZM229.496 262.604V263.574H225.497V262.604H229.496ZM226.851 260.806H228.115V268.168C228.115 268.419 228.154 268.608 228.231 268.735C228.309 268.863 228.409 268.947 228.532 268.988C228.655 269.029 228.787 269.05 228.929 269.05C229.034 269.05 229.143 269.041 229.257 269.022C229.375 269 229.464 268.981 229.523 268.968L229.53 270C229.43 270.032 229.298 270.062 229.134 270.089C228.974 270.121 228.781 270.137 228.553 270.137C228.243 270.137 227.958 270.075 227.698 269.952C227.438 269.829 227.231 269.624 227.076 269.337C226.926 269.045 226.851 268.653 226.851 268.161V260.806ZM232.604 259.5V270H231.332V259.5H232.604ZM236.962 269.234L239.02 262.604H240.373L237.406 271.142C237.338 271.324 237.247 271.52 237.133 271.729C237.023 271.944 236.882 272.146 236.709 272.338C236.536 272.529 236.326 272.684 236.08 272.803C235.839 272.926 235.549 272.987 235.212 272.987C235.112 272.987 234.984 272.974 234.829 272.946C234.674 272.919 234.565 272.896 234.501 272.878L234.494 271.853C234.531 271.857 234.588 271.862 234.665 271.866C234.747 271.875 234.804 271.88 234.836 271.88C235.123 271.88 235.367 271.841 235.567 271.764C235.768 271.691 235.937 271.565 236.073 271.388C236.215 271.215 236.335 270.975 236.436 270.67L236.962 269.234ZM235.451 262.604L237.372 268.346L237.7 269.679L236.791 270.144L234.07 262.604H235.451ZM250.279 262.604H251.428V269.843C251.428 270.494 251.296 271.05 251.031 271.511C250.767 271.971 250.398 272.32 249.924 272.557C249.454 272.798 248.912 272.919 248.297 272.919C248.042 272.919 247.741 272.878 247.395 272.796C247.053 272.718 246.715 272.584 246.383 272.393C246.055 272.206 245.779 271.953 245.556 271.634L246.219 270.882C246.529 271.256 246.852 271.515 247.189 271.661C247.531 271.807 247.868 271.88 248.201 271.88C248.602 271.88 248.949 271.805 249.24 271.654C249.532 271.504 249.757 271.281 249.917 270.984C250.081 270.693 250.163 270.333 250.163 269.904V264.23L250.279 262.604ZM245.187 266.384V266.24C245.187 265.675 245.253 265.162 245.385 264.702C245.521 264.237 245.715 263.839 245.966 263.506C246.221 263.173 246.529 262.918 246.889 262.74C247.249 262.558 247.654 262.467 248.105 262.467C248.57 262.467 248.976 262.549 249.322 262.713C249.673 262.872 249.969 263.107 250.211 263.417C250.457 263.722 250.651 264.091 250.792 264.524C250.933 264.957 251.031 265.447 251.086 265.994V266.623C251.036 267.165 250.938 267.653 250.792 268.086C250.651 268.519 250.457 268.888 250.211 269.193C249.969 269.499 249.673 269.733 249.322 269.897C248.971 270.057 248.561 270.137 248.092 270.137C247.65 270.137 247.249 270.043 246.889 269.856C246.533 269.67 246.228 269.408 245.973 269.07C245.717 268.733 245.521 268.337 245.385 267.881C245.253 267.421 245.187 266.922 245.187 266.384ZM246.451 266.24V266.384C246.451 266.753 246.488 267.099 246.561 267.423C246.638 267.746 246.754 268.031 246.909 268.277C247.069 268.523 247.271 268.717 247.518 268.858C247.764 268.995 248.058 269.063 248.399 269.063C248.819 269.063 249.165 268.975 249.438 268.797C249.712 268.619 249.928 268.384 250.088 268.093C250.252 267.801 250.38 267.484 250.471 267.143V265.495C250.421 265.244 250.343 265.003 250.238 264.771C250.138 264.534 250.006 264.324 249.842 264.142C249.682 263.955 249.484 263.807 249.247 263.697C249.01 263.588 248.732 263.533 248.413 263.533C248.067 263.533 247.768 263.606 247.518 263.752C247.271 263.893 247.069 264.089 246.909 264.34C246.754 264.586 246.638 264.873 246.561 265.201C246.488 265.525 246.451 265.871 246.451 266.24ZM256.668 270.137C256.153 270.137 255.686 270.05 255.267 269.877C254.852 269.699 254.494 269.451 254.193 269.132C253.897 268.813 253.669 268.435 253.51 267.997C253.35 267.56 253.271 267.081 253.271 266.562V266.274C253.271 265.673 253.359 265.137 253.537 264.668C253.715 264.194 253.956 263.793 254.262 263.465C254.567 263.137 254.913 262.888 255.301 262.72C255.688 262.551 256.089 262.467 256.504 262.467C257.033 262.467 257.488 262.558 257.871 262.74C258.258 262.923 258.575 263.178 258.821 263.506C259.067 263.829 259.25 264.212 259.368 264.654C259.487 265.092 259.546 265.57 259.546 266.09V266.657H254.022V265.625H258.281V265.529C258.263 265.201 258.195 264.882 258.076 264.572C257.962 264.262 257.78 264.007 257.529 263.807C257.279 263.606 256.937 263.506 256.504 263.506C256.217 263.506 255.952 263.567 255.711 263.69C255.469 263.809 255.262 263.987 255.089 264.224C254.916 264.461 254.781 264.75 254.686 265.092C254.59 265.434 254.542 265.828 254.542 266.274V266.562C254.542 266.912 254.59 267.243 254.686 267.553C254.786 267.858 254.929 268.127 255.116 268.359C255.308 268.592 255.538 268.774 255.807 268.906C256.08 269.038 256.39 269.104 256.736 269.104C257.183 269.104 257.561 269.013 257.871 268.831C258.181 268.649 258.452 268.405 258.685 268.1L259.45 268.708C259.291 268.95 259.088 269.18 258.842 269.398C258.596 269.617 258.293 269.795 257.933 269.932C257.577 270.068 257.156 270.137 256.668 270.137ZM264.369 262.604V263.574H260.37V262.604H264.369ZM261.724 260.806H262.988V268.168C262.988 268.419 263.027 268.608 263.104 268.735C263.182 268.863 263.282 268.947 263.405 268.988C263.528 269.029 263.66 269.05 263.802 269.05C263.907 269.05 264.016 269.041 264.13 269.022C264.248 269 264.337 268.981 264.396 268.968L264.403 270C264.303 270.032 264.171 270.062 264.007 270.089C263.847 270.121 263.654 270.137 263.426 270.137C263.116 270.137 262.831 270.075 262.571 269.952C262.312 269.829 262.104 269.624 261.949 269.337C261.799 269.045 261.724 268.653 261.724 268.161V260.806ZM269.199 262.604V263.574H265.2V262.604H269.199ZM266.554 260.806H267.818V268.168C267.818 268.419 267.857 268.608 267.935 268.735C268.012 268.863 268.112 268.947 268.235 268.988C268.358 269.029 268.491 269.05 268.632 269.05C268.737 269.05 268.846 269.041 268.96 269.022C269.078 269 269.167 268.981 269.227 268.968L269.233 270C269.133 270.032 269.001 270.062 268.837 270.089C268.677 270.121 268.484 270.137 268.256 270.137C267.946 270.137 267.661 270.075 267.401 269.952C267.142 269.829 266.934 269.624 266.779 269.337C266.629 269.045 266.554 268.653 266.554 268.161V260.806ZM272.307 262.604V270H271.035V262.604H272.307ZM270.939 260.642C270.939 260.437 271.001 260.263 271.124 260.122C271.252 259.981 271.438 259.91 271.685 259.91C271.926 259.91 272.111 259.981 272.238 260.122C272.37 260.263 272.437 260.437 272.437 260.642C272.437 260.838 272.37 261.006 272.238 261.147C272.111 261.284 271.926 261.353 271.685 261.353C271.438 261.353 271.252 261.284 271.124 261.147C271.001 261.006 270.939 260.838 270.939 260.642ZM275.852 264.183V270H274.587V262.604H275.783L275.852 264.183ZM275.551 266.021L275.024 266.001C275.029 265.495 275.104 265.028 275.25 264.6C275.396 264.167 275.601 263.791 275.865 263.472C276.13 263.153 276.444 262.907 276.809 262.733C277.178 262.556 277.586 262.467 278.032 262.467C278.397 262.467 278.725 262.517 279.017 262.617C279.308 262.713 279.557 262.868 279.762 263.082C279.971 263.296 280.131 263.574 280.24 263.916C280.35 264.253 280.404 264.666 280.404 265.153V270H279.133V265.14C279.133 264.752 279.076 264.442 278.962 264.21C278.848 263.973 278.682 263.802 278.463 263.697C278.244 263.588 277.975 263.533 277.656 263.533C277.342 263.533 277.055 263.599 276.795 263.731C276.54 263.864 276.319 264.046 276.132 264.278C275.95 264.511 275.806 264.777 275.701 265.078C275.601 265.374 275.551 265.689 275.551 266.021ZM287.367 262.604H288.516V269.843C288.516 270.494 288.383 271.05 288.119 271.511C287.855 271.971 287.486 272.32 287.012 272.557C286.542 272.798 286 272.919 285.385 272.919C285.13 272.919 284.829 272.878 284.482 272.796C284.141 272.718 283.803 272.584 283.471 272.393C283.143 272.206 282.867 271.953 282.644 271.634L283.307 270.882C283.617 271.256 283.94 271.515 284.277 271.661C284.619 271.807 284.956 271.88 285.289 271.88C285.69 271.88 286.036 271.805 286.328 271.654C286.62 271.504 286.845 271.281 287.005 270.984C287.169 270.693 287.251 270.333 287.251 269.904V264.23L287.367 262.604ZM282.274 266.384V266.24C282.274 265.675 282.34 265.162 282.473 264.702C282.609 264.237 282.803 263.839 283.054 263.506C283.309 263.173 283.617 262.918 283.977 262.74C284.337 262.558 284.742 262.467 285.193 262.467C285.658 262.467 286.064 262.549 286.41 262.713C286.761 262.872 287.057 263.107 287.299 263.417C287.545 263.722 287.739 264.091 287.88 264.524C288.021 264.957 288.119 265.447 288.174 265.994V266.623C288.124 267.165 288.026 267.653 287.88 268.086C287.739 268.519 287.545 268.888 287.299 269.193C287.057 269.499 286.761 269.733 286.41 269.897C286.059 270.057 285.649 270.137 285.18 270.137C284.738 270.137 284.337 270.043 283.977 269.856C283.621 269.67 283.316 269.408 283.061 269.07C282.805 268.733 282.609 268.337 282.473 267.881C282.34 267.421 282.274 266.922 282.274 266.384ZM283.539 266.24V266.384C283.539 266.753 283.576 267.099 283.648 267.423C283.726 267.746 283.842 268.031 283.997 268.277C284.157 268.523 284.359 268.717 284.605 268.858C284.852 268.995 285.146 269.063 285.487 269.063C285.907 269.063 286.253 268.975 286.526 268.797C286.8 268.619 287.016 268.384 287.176 268.093C287.34 267.801 287.467 267.484 287.559 267.143V265.495C287.508 265.244 287.431 265.003 287.326 264.771C287.226 264.534 287.094 264.324 286.93 264.142C286.77 263.955 286.572 263.807 286.335 263.697C286.098 263.588 285.82 263.533 285.501 263.533C285.155 263.533 284.856 263.606 284.605 263.752C284.359 263.893 284.157 264.089 283.997 264.34C283.842 264.586 283.726 264.873 283.648 265.201C283.576 265.525 283.539 265.871 283.539 266.24ZM295.783 259.5V270H294.512V259.5H295.783ZM302.425 268.735V264.928C302.425 264.636 302.366 264.383 302.247 264.169C302.133 263.95 301.96 263.782 301.728 263.663C301.495 263.545 301.208 263.485 300.866 263.485C300.547 263.485 300.267 263.54 300.025 263.649C299.788 263.759 299.602 263.902 299.465 264.08C299.333 264.258 299.267 264.449 299.267 264.654H298.002C298.002 264.39 298.07 264.128 298.207 263.868C298.344 263.608 298.54 263.374 298.795 263.164C299.055 262.95 299.365 262.781 299.725 262.658C300.089 262.531 300.495 262.467 300.941 262.467C301.479 262.467 301.953 262.558 302.363 262.74C302.778 262.923 303.102 263.198 303.334 263.567C303.571 263.932 303.689 264.39 303.689 264.941V268.387C303.689 268.633 303.71 268.895 303.751 269.173C303.797 269.451 303.863 269.69 303.949 269.891V270H302.63C302.566 269.854 302.516 269.66 302.479 269.419C302.443 269.173 302.425 268.945 302.425 268.735ZM302.644 265.516L302.657 266.404H301.379C301.019 266.404 300.698 266.434 300.415 266.493C300.132 266.548 299.896 266.632 299.704 266.746C299.513 266.86 299.367 267.004 299.267 267.177C299.166 267.345 299.116 267.544 299.116 267.771C299.116 268.004 299.169 268.216 299.273 268.407C299.378 268.599 299.535 268.751 299.745 268.865C299.959 268.975 300.221 269.029 300.531 269.029C300.919 269.029 301.26 268.947 301.557 268.783C301.853 268.619 302.088 268.419 302.261 268.182C302.438 267.945 302.534 267.715 302.548 267.491L303.088 268.1C303.056 268.291 302.969 268.503 302.828 268.735C302.687 268.968 302.498 269.191 302.261 269.405C302.028 269.615 301.75 269.79 301.427 269.932C301.108 270.068 300.748 270.137 300.347 270.137C299.845 270.137 299.406 270.039 299.027 269.843C298.654 269.647 298.362 269.385 298.152 269.057C297.947 268.724 297.845 268.353 297.845 267.942C297.845 267.546 297.922 267.197 298.077 266.896C298.232 266.591 298.455 266.338 298.747 266.138C299.039 265.933 299.39 265.778 299.8 265.673C300.21 265.568 300.668 265.516 301.174 265.516H302.644ZM307.303 262.604V270H306.031V262.604H307.303ZM305.936 260.642C305.936 260.437 305.997 260.263 306.12 260.122C306.248 259.981 306.435 259.91 306.681 259.91C306.922 259.91 307.107 259.981 307.234 260.122C307.367 260.263 307.433 260.437 307.433 260.642C307.433 260.838 307.367 261.006 307.234 261.147C307.107 261.284 306.922 261.353 306.681 261.353C306.435 261.353 306.248 261.284 306.12 261.147C305.997 261.006 305.936 260.838 305.936 260.642ZM314.245 268.564V259.5H315.517V270H314.354L314.245 268.564ZM309.269 266.384V266.24C309.269 265.675 309.337 265.162 309.474 264.702C309.615 264.237 309.813 263.839 310.068 263.506C310.328 263.173 310.636 262.918 310.991 262.74C311.351 262.558 311.752 262.467 312.194 262.467C312.659 262.467 313.065 262.549 313.411 262.713C313.762 262.872 314.058 263.107 314.3 263.417C314.546 263.722 314.74 264.091 314.881 264.524C315.022 264.957 315.12 265.447 315.175 265.994V266.623C315.125 267.165 315.027 267.653 314.881 268.086C314.74 268.519 314.546 268.888 314.3 269.193C314.058 269.499 313.762 269.733 313.411 269.897C313.06 270.057 312.65 270.137 312.181 270.137C311.748 270.137 311.351 270.043 310.991 269.856C310.636 269.67 310.328 269.408 310.068 269.07C309.813 268.733 309.615 268.337 309.474 267.881C309.337 267.421 309.269 266.922 309.269 266.384ZM310.54 266.24V266.384C310.54 266.753 310.576 267.099 310.649 267.423C310.727 267.746 310.845 268.031 311.005 268.277C311.164 268.523 311.367 268.717 311.613 268.858C311.859 268.995 312.153 269.063 312.495 269.063C312.914 269.063 313.258 268.975 313.527 268.797C313.801 268.619 314.02 268.384 314.184 268.093C314.348 267.801 314.475 267.484 314.566 267.143V265.495C314.512 265.244 314.432 265.003 314.327 264.771C314.227 264.534 314.095 264.324 313.931 264.142C313.771 263.955 313.573 263.807 313.336 263.697C313.104 263.588 312.828 263.533 312.509 263.533C312.162 263.533 311.864 263.606 311.613 263.752C311.367 263.893 311.164 264.089 311.005 264.34C310.845 264.586 310.727 264.873 310.649 265.201C310.576 265.525 310.54 265.871 310.54 266.24Z" fill="#00A575"/>
<defs>
<clipPath id="clip0_1_7">
<rect width="26.9608" height="34.9777" fill="white" transform="translate(340 30)"/>
</clipPath>
<clipPath id="clip1_1_7">
<rect width="26.9023" height="19.8227" fill="white" transform="translate(49.7989 257.089)"/>
</clipPath>
</defs>
</svg>
