<svg width="53" height="57" viewBox="0 0 53 57" fill="none" xmlns="http://www.w3.org/2000/svg">
<rect width="52.9608" height="56.9777" rx="3" fill="#DDF7E7"/>
<g clip-path="url(#clip0_1_417)">
<path d="M37.2512 11C39.3887 11.7897 39.9328 12.5763 39.9328 14.8755C39.9328 23.4505 39.8878 32.0255 39.9608 40.6005C39.981 43.0738 38.47 44.5117 36.1382 44.4029C35.2863 44.3641 34.4312 44.3967 33.6135 44.3967C33.1487 42.2763 32.6932 40.1978 32.2253 38.0603C33.6571 38.0603 35.1697 38.0603 36.7304 38.0603C36.7304 31.1347 36.7304 24.2884 36.7304 17.4001C31.462 17.4001 26.2185 17.4001 20.8941 17.4001C20.8941 20.5575 20.8941 23.6759 20.8941 26.8737C19.8898 26.5783 18.9727 26.3327 18.0772 26.0233C17.9093 25.9658 17.7275 25.6518 17.7275 25.4559C17.7088 21.7001 17.6948 17.9427 17.7259 14.1869C17.7414 12.4799 18.7783 11.5208 20.3065 11C25.9542 11 31.6035 11 37.2512 11Z" fill="#8ACCB4"/>
<path d="M27.302 45.9777C27.173 43.3583 26.6258 40.8523 25.2096 38.6028C22.4751 34.2609 18.5467 31.94 13.4136 31.6773C13.3109 31.6726 13.2083 31.6633 13.1057 31.6493C13.084 31.6462 13.0669 31.6166 13.0047 31.5622C13.0047 30.6062 13.0047 29.6112 13.0047 28.6194C20.4169 28.1344 30.3039 34.4832 30.4112 45.9777C29.3743 45.9777 28.3389 45.9777 27.302 45.9777Z" fill="#8ACCB4"/>
<path d="M20.9283 45.9777C20.6967 42.3618 19.0333 39.7501 15.5588 38.4769C14.7722 38.1893 13.911 38.1054 13.0156 37.9126C13.0156 37.0032 13.0156 36.0067 13.0156 35.0118C18.0026 33.7992 24.0421 39.8076 24.0374 45.9777C23.0005 45.9777 21.9652 45.9777 20.9283 45.9777Z" fill="#8ACCB4"/>
<path d="M13 45.9777C13 44.4293 13 42.8794 13 41.3327C15.4189 40.9984 17.6855 43.2665 17.6637 45.9777C16.1091 45.9777 14.5546 45.9777 13 45.9777Z" fill="#8ACCB4"/>
</g>
<defs>
<clipPath id="clip0_1_417">
<rect width="26.9608" height="34.9777" fill="white" transform="translate(13 11)"/>
</clipPath>
</defs>
</svg>
